<?xml version="1.0" encoding="utf-8"?>
<!-- Generator: Adobe Illustrator 16.0.0, SVG Export Plug-In . SVG Version: 6.00 Build 0)  -->
<!DOCTYPE svg PUBLIC "-//W3C//DTD SVG 1.1//EN" "http://www.w3.org/Graphics/SVG/1.1/DTD/svg11.dtd">
<svg version="1.1" id="Ebene_1" xmlns="http://www.w3.org/2000/svg" xmlns:xlink="http://www.w3.org/1999/xlink" x="0px" y="0px"
	 width="560px" height="560px" viewBox="0 0 560 560" enable-background="new 0 0 560 560" xml:space="preserve">
<g id="data-lock">
	<g id="icon_14_">
		<ellipse fill="#707070" cx="438.284" cy="280.018" rx="105.775" ry="109.248"/>
		<path fill="#707070" d="M236.579,148.123c127.473,0,230.805-29.565,230.805-65.96c0-36.387-103.33-65.953-230.805-65.953
			C109.082,16.21,5.772,45.775,5.772,82.163C5.772,118.558,109.082,148.123,236.579,148.123z"/>
		<path fill="#707070" d="M236.579,280c19.697,0,38.721-0.764,56.974-2.109c0.616-41.226,18.7-78.197,47.166-104.034
			c-49.167,6.676-93.362,7.227-104.14,7.227c-20.745,0-164.896-1.774-230.807-46.088v79.08C5.772,250.435,109.082,280,236.579,280z"
			/>
		<path fill="#707070" d="M236.579,411.911c45.791,0,88.35-3.856,124.234-10.438c-32.151-20.258-55.748-52.798-64.056-91.052
			c-29.614,2.294-52.796,2.569-60.174,2.569c-20.749,0-164.897-1.807-230.811-46.123v79.083
			C5.772,382.346,109.082,411.911,236.579,411.911z"/>
		<path fill="#707070" d="M415.72,421.825c-70.82,21.853-162.871,23.04-179.137,23.04c-20.747,0-164.897-1.794-230.809-46.082
			v79.048c0,36.394,103.312,65.959,230.809,65.959c127.471,0,230.803-29.565,230.803-65.959v-57.536
			c-9.779,2.114-19.923,3.308-30.347,3.308C429.784,423.601,422.696,422.863,415.72,421.825z"/>
		<path fill="#E3670E" d="M449.173,287.035c0-1.434-0.354-2.811-0.938-4.07c-0.716-1.56-1.93-2.845-3.347-3.943
			c-0.175-0.156-0.321-0.307-0.508-0.402c-2.062-1.439-4.621-2.356-7.465-2.356c-2.819,0-5.357,0.917-7.425,2.356
			c-1.577,1.07-2.919,2.417-3.764,4.068c-0.657,1.351-1.07,2.788-1.07,4.344c0,0.037,0.013,0.037,0.013,0.07
			c0.033,2.751,1.333,5.168,3.354,7.004c0.857,0.83,1.802,1.565,2.892,2.114l-4.667,22.247l-1.592,7.56h24.517l-1.567-7.56
			l-4.665-22.247c1.151-0.581,2.143-1.348,3.019-2.202C447.916,292.153,449.173,289.762,449.173,287.035z"/>
		<path fill="#E3670E" d="M467.384,166.943c-9.687-2.598-19.836-4.131-30.349-4.131c-63.201,0-114.571,50.071-116.974,112.688
			c-0.06,1.501-0.227,2.999-0.227,4.5c0,9.643,1.284,18.946,3.476,27.885c9.76,39.909,39.814,71.833,78.699,83.984
			c11.065,3.487,22.828,5.356,35.03,5.356c64.711,0,117.189-52.463,117.189-117.224
			C554.225,225.796,517.363,180.318,467.384,166.943z M494.893,344.855h-14.83h-12.679h-16.101h-28.506h-29.003h-12.119V298.7
			v-33.39v-13.068h4.513h5.803V237.83c0-25.16,20.762-45.666,46.304-45.666c11.077,0,21.136,4.01,29.109,10.404
			c10.417,8.416,17.212,20.995,17.212,35.261v14.413h5.798h4.497v92.613H494.893z"/>
		<path fill="#E3670E" d="M438.275,212.76c-13.94,0-25.738,11.477-25.738,25.068v14.413h5.798h5.749h0.464h25.599h8.083h5.795
			v-14.413c0-3.403-0.737-6.676-2.083-9.674C457.984,219.215,448.746,212.76,438.275,212.76z"/>
	</g>
</g>
<g id="Layer_1">
</g>
</svg>
